<svg xmlns="http://www.w3.org/2000/svg" width="15" height="16" viewBox="0 0 18 18">
  <g id="Group_63691" data-name="Group 63691" transform="translate(-5 -6)">
    <rect id="Rectangle_24345" data-name="Rectangle 24345" width="18" height="18" transform="translate(5 6)" fill="none"/>
    <path id="Path_84505" data-name="Path 84505" d="M8.579,18.6h6.961a1.93,1.93,0,0,0,2.129-2.2V6.332a1.925,1.925,0,0,0-2.129-2.2H13.587a.368.368,0,0,0-.392.4,1.136,1.136,0,1,1-2.272,0,.368.368,0,0,0-.392-.4H8.579a1.927,1.927,0,0,0-2.129,2.2V16.407A1.93,1.93,0,0,0,8.579,18.6ZM8.7,17.268a.846.846,0,0,1-.947-.948v-9.9A.848.848,0,0,1,8.7,5.464H9.944a2.092,2.092,0,0,0,2.116,1.489,2.092,2.092,0,0,0,2.116-1.489h1.247a.848.848,0,0,1,.947.955v9.9a.846.846,0,0,1-.947.948Zm.986-8h4.76a.419.419,0,0,0,.418-.434.41.41,0,0,0-.418-.414H9.682a.408.408,0,0,0-.424.414A.416.416,0,0,0,9.682,9.27Zm0,2.31h2.3a.424.424,0,0,0,0-.848h-2.3a.424.424,0,1,0,0,.848Z" transform="translate(1.942 3.632)" fill="#999" opacity="0.8"/>
  </g>
</svg>
