<svg xmlns="http://www.w3.org/2000/svg" width="24" height="24" viewBox="0 0 24 24">
  <path id="Path_84533" data-name="Path 84533" d="M15,27A12,12,0,1,0,3,15,12,12,0,0,0,15,27Zm6.358-15.146a1.333,1.333,0,1,0-2.049-1.707l-4.8,5.757a11.98,11.98,0,0,1-.93,1.051l-.008.007-.009-.006a12.008,12.008,0,0,1-1.021-.962l-1.935-1.935a1.333,1.333,0,0,0-1.886,1.886l1.935,1.935.054.054h0a13.13,13.13,0,0,0,1.244,1.149,2.479,2.479,0,0,0,3.419-.155,13.152,13.152,0,0,0,1.135-1.257h0l.049-.059Z" transform="translate(-3 -3)" fill="#262626" fill-rule="evenodd"/>
</svg>
