<svg id="Component_622_3" data-name="Component 622 – 3" xmlns="http://www.w3.org/2000/svg" width="40" height="40" viewBox="0 0 40 40">
  <g id="Rectangle_24370" data-name="Rectangle 24370" fill="#fff" stroke="#1d366f" stroke-width="1">
    <rect width="40" height="40" rx="5" stroke="none"/>
    <rect x="0.5" y="0.5" width="39" height="39" rx="4.5" fill="none"/>
  </g>
  <path id="Path_84536" data-name="Path 84536" d="M2722-15928.582a2.309,2.309,0,0,1,2.3-2.3,2.312,2.312,0,0,1,2.3,2.3,2.308,2.308,0,0,1-2.3,2.3A2.306,2.306,0,0,1,2722-15928.582Zm0-8.057a2.308,2.308,0,0,1,2.3-2.3,2.311,2.311,0,0,1,2.3,2.3,2.307,2.307,0,0,1-2.3,2.3A2.3,2.3,0,0,1,2722-15936.639Zm0-8.059a2.306,2.306,0,0,1,2.3-2.3,2.309,2.309,0,0,1,2.3,2.3,2.309,2.309,0,0,1-2.3,2.3A2.306,2.306,0,0,1,2722-15944.7Z" transform="translate(-2704.303 15956.637)" fill="#1d366f"/>
</svg>
