<svg id="eye-line_1_" data-name="eye-line (1)" xmlns="http://www.w3.org/2000/svg" width="24" height="24" viewBox="0 0 24 24">
  <path id="Path_5" data-name="Path 5" d="M0,0H24V24H0Z" fill="none"/>
  <path id="visibility_off_FILL0_wght400_GRAD0_opsz48" d="M56.064,203.164l-1.2-1.2a2.706,2.706,0,0,0-.736-3.218,2.913,2.913,0,0,0-3.136-.655l-1.2-1.2a3.3,3.3,0,0,1,1.036-.436A5.045,5.045,0,0,1,52,196.318a4.609,4.609,0,0,1,4.636,4.636,4.769,4.769,0,0,1-.15,1.186A3.6,3.6,0,0,1,56.064,203.164Zm3.518,3.518-1.091-1.091a12.791,12.791,0,0,0,2.332-2.2,8.764,8.764,0,0,0,1.459-2.441,10.886,10.886,0,0,0-4.091-4.786,10.709,10.709,0,0,0-5.918-1.759,13.1,13.1,0,0,0-2.345.218,8.7,8.7,0,0,0-1.882.518l-1.255-1.282a12.366,12.366,0,0,1,2.441-.764,13.486,13.486,0,0,1,2.9-.327A12.312,12.312,0,0,1,59.268,195,12.887,12.887,0,0,1,64,200.955a13.473,13.473,0,0,1-1.827,3.191A13.173,13.173,0,0,1,59.582,206.682Zm1.582,6.164-4.582-4.5a10.6,10.6,0,0,1-2.155.586,14.421,14.421,0,0,1-2.427.2,12.5,12.5,0,0,1-7.227-2.223A13.027,13.027,0,0,1,40,200.955a12.375,12.375,0,0,1,1.514-2.768,15.5,15.5,0,0,1,2.359-2.577l-3.436-3.436L41.582,191l20.645,20.645ZM44.991,196.755a10.037,10.037,0,0,0-1.95,1.936,8.977,8.977,0,0,0-1.35,2.264,10.921,10.921,0,0,0,4.186,4.786,11.655,11.655,0,0,0,6.341,1.759,14.28,14.28,0,0,0,1.773-.109,4.236,4.236,0,0,0,1.309-.327l-1.745-1.745a2.856,2.856,0,0,1-.736.2,5.317,5.317,0,0,1-.818.068,4.509,4.509,0,0,1-3.273-1.336,4.438,4.438,0,0,1-1.364-3.3,4.969,4.969,0,0,1,.068-.818,3.34,3.34,0,0,1,.2-.736ZM53.309,200.627ZM50.145,202.209Z" transform="translate(-40 -189)"/>
</svg>
